<svg xmlns="http://www.w3.org/2000/svg" viewBox="0 0 991.49 987.35"><defs><style>.cls-1{fill:none;stroke:#000;stroke-miterlimit:10;stroke-width:1.49px;}</style></defs><title>Asset 1</title><g id="Layer_2" data-name="Layer 2"><g id="Layer_1-2" data-name="Layer 1"><path class="cls-1" d="M412.36,8.83C567.81-20,685.81,31.59,781.3,108.7c94.08,78.56,165.63,182.72,195.35,293.52,32.36,112.72,7.73,224.14-61,332.11C846.78,839.65,733.83,941.49,587.05,974c-138,28.3-255.09,12.35-370-81.78-94-77.46-174.83-195.1-202.9-320C-19.39,427.18,10.4,288.85,99.26,182.75,180.11,86.52,293.31,30.19,412.36,8.83Z"/><path class="cls-1" d="M487.42,112.79C688.94,128,874.52,294.71,883.86,474.57c3.93,92.81-42.12,183.48-111.59,261C702.33,811.89,609,875.05,507.76,887.24c-111.19,13.91-193.66-64.72-271.89-152C172.21,663.4,104,594.51,101,494c-3.77-116.66,24.71-229.86,103.18-300C275.71,129.94,389.61,107.19,487.42,112.79Z"/><path class="cls-1" d="M495.89,224.39c148.89,10.83,275.86,125.53,276.76,263.47C771.88,625.43,644,764.44,496.12,776.59c-81.85,5.3-139.52-51.91-192.41-115.06-43.28-51.87-89.12-101.82-89.2-173.73-.13-83.39,19.55-163.66,75.61-211.17C341.22,233.3,424.32,220.09,495.89,224.39Z"/><path class="cls-1" d="M496,415.6c47.12.89,85.33,34.4,85.34,80.55s-38.24,87.48-85.26,88.65c-25.85.56-43.43-16.94-59.21-36-13-15.67-26.57-30.63-26.59-52.34,0-25.17,5.15-49.32,22-63.68C447.66,419.68,473.57,415.26,496,415.6Z"/><path class="cls-1" d="M496,430c39.14.58,70.85,28.35,70.85,66.83s-31.71,72.74-70.79,73.55c-21.46.39-36.05-14.12-49.12-29.94-10.76-13-22-25.39-22-43.35,0-20.84,4.23-40.84,18.2-52.75C455.85,433.49,477.36,429.77,496,430Z"/><path class="cls-1" d="M496.07,404.33c53.34,1.17,96.65,39.2,96.68,91.29s-43.37,99-96.6,100.45c-29.24.69-49.18-19.11-67.08-40.76-14.72-17.76-30.15-34.74-30.17-59.39,0-28.56,5.85-56,25-72.25C441.26,408.84,470.64,403.87,496.07,404.33Z"/><path class="cls-1" d="M490.29,388.94c61.78-1.74,114.25,40.12,117.59,100.2S563.61,605.9,502,611.18c-33.85,2.75-58.16-18.89-80.24-42.84-18.15-19.68-37.11-38.44-38.65-67.06-1.76-33.17,3.43-65.41,24.65-85.51C427.1,397.44,460.81,389.87,490.29,388.94Z"/><path class="cls-1" d="M513.55,375.45C583,387.38,633,444,623.24,511.39,613.32,578.72,548.49,633.51,479.1,626c-38.16-4.3-60.73-34.06-80.29-65.78-16.09-26.08-33.25-51.31-28.81-83.59,5.14-37.48,17.9-72.25,45.81-89.85C441.23,370.75,480.42,370,513.55,375.45Z"/><path class="cls-1" d="M508.77,354.35c80.93,10,142.4,73.25,135.42,151.19-7.26,77.91-79.37,145.24-160.1,141.42-44.44-2.37-72.42-35.39-97.09-71-20.27-29.24-41.75-57.48-38.56-95.27,3.7-43.86,16.53-85.11,47.86-107.33C424.86,353.12,470.13,349.86,508.77,354.35Z"/><path class="cls-1" d="M495.8,337.84c89.7,3.57,163.33,68.83,163.48,154.82-.22,85.9-74,166-163.35,170.14-49.2,1.91-83.05-31.6-113.62-68.43-25.08-30.26-51.48-59.32-51.52-101.4-.07-48.79,10.32-95.63,42.9-123.3C403.36,344.48,452.93,336.43,495.8,337.84Z"/><path class="cls-1" d="M495.87,323C593.54,327.31,674,398.78,674.2,492c-.27,93.07-80.91,180.64-178.18,185.62-53.57,2.24-90.52-34.3-123.94-74.55-27.43-33.05-56.31-64.82-56.35-110.8-.08-53.31,11.4-104.5,47-134.71C395.16,330,449.18,321.31,495.87,323Z"/><path class="cls-1" d="M486.13,311.59c103.61-.93,192.8,71.77,198.73,170.39,5.39,98.39-75.88,194.86-179,206.27-56.77,5.67-98-30.84-135.72-71.63C339.2,583.1,306.7,551,304.05,502.11c-3.1-56.69,6.32-111.8,42.59-146C379.66,324.83,436.56,312.37,486.13,311.59Z"/><path class="cls-1" d="M484.28,269c125.92.2,235.58,90.83,243.16,209.2,6.59,118-93.93,236.67-219.12,252.36-69.05,7.64-119.48-37.09-166-87.25-38.12-41.18-78.25-80.73-81.54-140.77C256.9,432.84,269,365.09,313.72,323,354.43,284.53,423.92,269.34,484.28,269Z"/><path class="cls-1" d="M525.28,289.49c116.2,23.45,202.21,119.29,185.54,229.11C693.34,628.45,583.3,724.49,467.5,714.06c-64-6.28-102.69-57-136.37-111.21C303.5,558.33,274,515.18,281.77,460c9-64,31.59-123.5,79-153.35C404,279.43,469.67,279,525.28,289.49Z"/><path class="cls-1" d="M517.28,253.66C652,275,758,383.17,746.24,508.89,733.18,634.58,610,752.53,476.06,749.46,402,746.9,354,690.56,311.47,629.75c-34.91-50-72-98.28-66.35-162.83,6.48-74.82,29.8-145.45,83.23-183.31C377.05,249.05,452.71,244.36,517.28,253.66Z"/><path class="cls-1" d="M449.1,208.39C605.27,190.36,754.2,298,784,443c28.18,143.76-85.91,301.34-241,344.12-85.47,21.57-154.29-26.35-220.28-82.91-53.89-46.34-110.68-90.77-124-166.25-15.48-87.53-9.1-174.69,42.45-235.06C288.13,247.85,373.94,217.39,449.1,208.39Z"/><path class="cls-1" d="M440,141.82C627.66,121.76,810.21,260.93,848.71,432c18.27,87.6-9.62,173.6-64.52,250.44C729.14,758.31,647.05,825,553.43,850.71c-102.94,28.49-186.28-30.15-267.78-100-66.35-57.17-137-112.18-153.81-204.56C112.19,439,121.65,332.56,186,258,244.59,190.06,349.26,151.9,440,141.82Z"/><path class="cls-1" d="M505,167.84C681.91,189.32,834.56,332.9,831.06,493.52,824.58,653.7,664.35,822.53,489,835.1c-97.5,4.83-165.86-66.84-228.72-145.21C209,625.45,154.31,563.47,156.63,476.61,159.19,375.9,187.2,279.23,256.68,223.2,320,172.05,419.55,159.06,505,167.84Z"/><path class="cls-1" d="M433.39,88.87C644.24,67.52,853.65,234.59,899.9,424.07c21.66,97.61-11.45,192.91-75,280.59-63.76,86.27-158,164.92-263.45,196.18C445.41,935.49,351,868.14,257,787.62c-76.33-65.9-158.36-129.51-178.22-235C55.56,430,68.17,308.76,143.13,222.78,211.43,144.43,330.79,99.63,433.39,88.87Z"/><path class="cls-1" d="M420.27,73.67c217.41-30.21,436.85,142.61,493.2,337.85C939.91,512.14,908.83,610,845,701.91c-64,90.32-160.86,174.68-269.57,211.43C455.61,954,355.44,901.1,255.62,820.15c-81-66.23-167.18-143.66-191.44-252.78-28.46-126.78-19-252.61,57.24-344.28C190.84,139.55,314.36,88.39,420.27,73.67Z"/><path class="cls-1" d="M416.84,49.2c116.9-17.86,227.43,24,321.9,91.8,93.46,68.56,170.87,163.14,198.09,266.75,28.4,104.84-5.06,206.36-72.93,303.2C795.83,806,693.32,896.28,579.48,936.1c-125.64,43.9-229.8-4.68-335.41-90.49C158.36,775.39,65.71,685.93,39.78,570.92,9.48,437.27,24.41,313.66,105.26,216.63,179.07,128.26,305.84,64.5,416.84,49.2Z"/><path class="cls-1" d="M427.36,29.8c121-14,235.88,34.54,333.25,107.61,96.24,74,174.95,172.41,197.38,278.91,27.85,129.13-13.36,234.42-87.16,328.84-74.44,92.52-181.45,174.17-299.89,211.69-130.31,42.35-248.22-1.63-356.64-95-88.05-76.37-171-182.24-194-302.07C-6.86,420.6,17.15,296.92,103.85,198.08,183.17,108.14,312.4,41.27,427.36,29.8Z"/></g></g></svg>