<svg xmlns="http://www.w3.org/2000/svg" viewBox="0 0 182.71 105.22"><defs><style>.cls-1{fill:#231f20;}</style></defs><title>Asset 1</title><g id="Layer_2" data-name="Layer 2"><g id="Layer_1-2" data-name="Layer 1"><path class="cls-1" d="M168.29,40.35,157.51,76.62l-10.9-36.27h-12L123.82,76.21s-.39-4.34-3.53-13.51c-6.82-24.34-25.53-40.81-25.53-40.81-3.82,3.64-10.65,10.57-10.65,10.57,7.44,7.66,12,14.41,17.24,24.25A132.59,132.59,0,0,1,111,82.34a191.49,191.49,0,0,1,4.28,21.88h16.8l8.52-38.5,11.66,38.5h11.31l19.1-63.87Z"/><path class="cls-1" d="M82,63.64a20.79,20.79,0,1,0,20.8,20.79A20.81,20.81,0,0,0,82,63.64Zm9.8,20.79A9.8,9.8,0,1,1,82,74.64,9.81,9.81,0,0,1,91.76,84.43Z"/><path class="cls-1" d="M91.84,19A65,65,0,0,0,0,19L10.61,29.6A49.58,49.58,0,0,1,38.8,15.52v88.7H53.53V15.59a49.62,49.62,0,0,1,27.7,14Z"/></g></g></svg>